<svg width="24" height="24" viewBox="0 0 24 24" fill="none" xmlns="http://www.w3.org/2000/svg">
<path d="M20.9531 10.8281C21.6773 10.8281 21.9797 9.89764 21.3914 9.46874L12.4406 2.9578C12.3128 2.86415 12.1585 2.81366 12 2.81366C11.8415 2.81366 11.6872 2.86415 11.5594 2.9578L2.60859 9.46874C2.02031 9.8953 2.32265 10.8281 3.04921 10.8281H4.49999V19.5937H2.81249C2.70937 19.5937 2.62499 19.6781 2.62499 19.7812V21C2.62499 21.1031 2.70937 21.1875 2.81249 21.1875H21.1875C21.2906 21.1875 21.375 21.1031 21.375 21V19.7812C21.375 19.6781 21.2906 19.5937 21.1875 19.5937H19.5V10.8281H20.9531ZM8.92968 19.5937H6.18749V10.8281H8.92968V19.5937ZM13.3594 19.5937H10.6172V10.8281H13.3594V19.5937ZM17.8125 19.5937H15.0469V10.8281H17.8125V19.5937Z" fill="black"/>
</svg>
